<svg data-v-423bf9ae="" xmlns="http://www.w3.org/2000/svg" viewBox="0 0 543.3056410303656 60" class="font"><!----><!----><!----><g data-v-423bf9ae="" id="67126626-12e4-4113-b80e-82791d6ea9c3" fill="black" transform="matrix(4.52830171585083,0,0,4.52830171585083,-5.071702003479004,-13.901884078979492)"><path d="M8.65 11.23C8.51 10.07 8.15 9.32 7.14 8.96C8.43 8.58 9.09 7.77 9.09 6.55C9.09 4.84 7.87 4.16 6.47 3.99C5.95 3.93 5.56 3.92 4.96 3.92L1.12 3.92L1.12 13.58L3.64 13.58L3.64 9.91L4.20 9.91C4.48 9.91 4.72 9.91 5.00 9.93C5.64 9.97 6.06 10.58 6.19 11.65C6.27 12.33 6.41 12.89 6.64 13.58L9.38 13.58C9.00 13.01 8.78 12.32 8.65 11.23ZM3.64 8.09L3.64 5.88L4.62 5.88C4.89 5.88 5.11 5.88 5.29 5.89C5.94 5.95 6.45 6.17 6.45 6.99C6.45 7.80 5.87 8.02 5.22 8.08C5.04 8.09 4.82 8.09 4.55 8.09ZM17.63 9.74C17.63 7.81 16.37 5.91 13.87 5.91C11.38 5.91 9.88 7.69 9.88 9.87C9.88 12.50 11.59 13.78 13.73 13.78C15.65 13.78 17.05 12.82 17.49 11.13L15.01 11.13C14.91 11.70 14.48 12.07 13.76 12.07C13.05 12.07 12.50 11.72 12.38 10.47L17.58 10.47C17.61 10.22 17.63 9.97 17.63 9.74ZM13.75 7.62C14.42 7.62 14.85 8.05 14.99 8.93L12.46 8.93C12.63 8.01 13.09 7.62 13.75 7.62ZM22.23 5.91C20.03 5.91 18.30 7.35 18.30 9.93C18.30 12.39 19.92 13.78 22.06 13.78C24.09 13.78 25.59 12.77 25.87 10.84L23.39 10.84C23.25 11.65 22.78 12.07 22.20 12.07C21.35 12.07 20.87 11.37 20.87 9.77C20.87 8.33 21.34 7.62 22.18 7.62C22.81 7.62 23.30 7.98 23.41 8.96L25.84 8.96C25.77 7.28 24.43 5.91 22.23 5.91ZM28.20 3.07C27.41 3.07 26.89 3.54 26.89 4.30C26.89 5.05 27.41 5.53 28.20 5.53C28.98 5.53 29.50 5.05 29.50 4.30C29.50 3.54 28.98 3.07 28.20 3.07ZM29.46 13.58L29.46 6.10L26.94 6.10L26.94 13.58ZM35.95 5.91C35.20 5.91 34.47 6.06 34.05 6.37L33.49 7.20L33.49 6.10L30.97 6.10L30.97 16.32L33.49 16.32L33.49 12.61L33.98 13.41C34.36 13.64 35.08 13.78 35.70 13.78C37.62 13.78 39.24 12.33 39.24 9.67C39.24 7.46 37.98 5.91 35.95 5.91ZM35.01 12.07C34.26 12.07 33.49 11.56 33.49 10.07L33.49 9.74C33.49 8.18 34.16 7.62 35.08 7.62C35.97 7.62 36.67 8.40 36.67 9.80C36.67 11.33 35.99 12.07 35.01 12.07ZM47.66 9.74C47.66 7.81 46.40 5.91 43.90 5.91C41.41 5.91 39.91 7.69 39.91 9.87C39.91 12.50 41.62 13.78 43.76 13.78C45.68 13.78 47.08 12.82 47.52 11.13L45.04 11.13C44.94 11.70 44.51 12.07 43.79 12.07C43.08 12.07 42.53 11.72 42.41 10.47L47.61 10.47C47.64 10.22 47.66 9.97 47.66 9.74ZM43.78 7.62C44.45 7.62 44.88 8.05 45.02 8.93L42.49 8.93C42.66 8.01 43.12 7.62 43.78 7.62ZM56.18 8.43L56.18 10.39L58.06 10.39C57.71 11.45 57.06 11.93 56.08 11.93C54.89 11.93 53.84 11.10 53.84 8.67C53.84 6.58 54.87 5.57 56.10 5.57C57.12 5.57 57.75 6.06 57.96 7.10L57.99 7.24L60.51 7.24L60.49 7.10C60.30 5.19 58.88 3.72 56.13 3.72C53.48 3.72 51.21 5.46 51.21 8.82C51.21 12.07 53.02 13.78 55.59 13.78C56.62 13.78 57.27 13.62 57.82 13.16L58.24 12.10L58.48 13.58L60.44 13.58L60.44 8.43ZM69.16 9.74C69.16 7.81 67.90 5.91 65.41 5.91C62.92 5.91 61.42 7.69 61.42 9.87C61.42 12.50 63.13 13.78 65.27 13.78C67.19 13.78 68.59 12.82 69.02 11.13L66.54 11.13C66.44 11.70 66.01 12.07 65.30 12.07C64.58 12.07 64.04 11.72 63.91 10.47L69.12 10.47C69.15 10.22 69.16 9.97 69.16 9.74ZM65.28 7.62C65.95 7.62 66.39 8.05 66.53 8.93L63.99 8.93C64.16 8.01 64.62 7.62 65.28 7.62ZM77.77 7.94C77.57 6.64 76.66 5.91 75.12 5.91C74.44 5.91 73.91 6.06 73.44 6.34L72.77 7.27L72.77 6.10L70.25 6.10L70.25 13.58L72.77 13.58L72.77 10.05C72.77 8.36 73.32 7.62 74.09 7.62C74.84 7.62 75.24 8.04 75.29 8.75C75.32 9.13 75.32 9.53 75.32 9.77L75.32 13.58L77.84 13.58L77.84 9.35C77.84 8.75 77.83 8.32 77.77 7.94ZM86.59 9.74C86.59 7.81 85.33 5.91 82.84 5.91C80.35 5.91 78.85 7.69 78.85 9.87C78.85 12.50 80.56 13.78 82.70 13.78C84.62 13.78 86.02 12.82 86.45 11.13L83.97 11.13C83.87 11.70 83.44 12.07 82.73 12.07C82.01 12.07 81.47 11.72 81.34 10.47L86.55 10.47C86.58 10.22 86.59 9.97 86.59 9.74ZM82.71 7.62C83.38 7.62 83.82 8.05 83.96 8.93L81.42 8.93C81.59 8.01 82.05 7.62 82.71 7.62ZM92.20 5.91C91.73 5.91 91.14 6.12 90.73 6.57L90.20 7.62L90.20 6.10L87.68 6.10L87.68 13.58L90.20 13.58L90.20 10.84C90.20 8.58 90.89 7.88 92.78 8.01L92.78 5.95C92.60 5.92 92.44 5.91 92.20 5.91ZM97.94 13.58L100.41 13.58C100.30 12.75 100.27 12.25 100.27 11.69L100.27 9.59C100.27 9.13 100.25 8.69 100.23 8.32C100.11 6.96 99.30 5.91 96.94 5.91C95.05 5.91 93.49 6.90 93.48 8.65L95.86 8.64C95.90 7.99 96.24 7.62 96.82 7.62C97.37 7.62 97.68 7.95 97.72 8.33C97.75 8.57 97.75 8.72 97.75 8.88L97.75 8.99L97.27 8.99C94.74 8.99 93.23 9.97 93.23 11.56C93.23 13.01 94.39 13.78 95.62 13.78C96.31 13.78 96.94 13.61 97.47 13.27L97.78 12.49ZM96.66 12.07C96.15 12.07 95.80 11.82 95.80 11.37C95.80 10.63 96.61 10.33 97.75 10.42L97.75 10.91C97.75 11.69 97.16 12.07 96.66 12.07ZM104.80 7.73L106.46 7.73L106.46 6.16L104.80 6.16L104.80 4.23L102.28 4.23L102.28 6.16L101.09 6.16L101.09 7.73L102.28 7.73L102.28 10.85C102.28 11.27 102.28 11.62 102.31 12.05C102.40 13.20 102.96 13.78 104.82 13.78C105.35 13.78 105.81 13.73 106.30 13.65L106.30 12.08C105.11 12.14 104.87 11.97 104.82 11.21C104.80 11.02 104.80 10.74 104.80 10.49ZM110.89 5.91C108.44 5.91 106.88 7.43 106.88 9.84C106.88 12.24 108.44 13.78 110.89 13.78C113.34 13.78 114.91 12.24 114.91 9.84C114.91 7.43 113.34 5.91 110.89 5.91ZM110.89 12.07C110.00 12.07 109.45 11.33 109.45 9.84C109.45 8.34 110.00 7.62 110.89 7.62C111.79 7.62 112.34 8.34 112.34 9.84C112.34 11.33 111.79 12.07 110.89 12.07ZM120.53 5.91C120.05 5.91 119.46 6.12 119.06 6.57L118.52 7.62L118.52 6.10L116.00 6.10L116.00 13.58L118.52 13.58L118.52 10.84C118.52 8.58 119.21 7.88 121.10 8.01L121.10 5.95C120.92 5.92 120.76 5.91 120.53 5.91Z"></path></g><!----><!----></svg>